<svg width="544" height="402" viewBox="0 0 544 402" fill="none" xmlns="http://www.w3.org/2000/svg">
<path d="M543.677 188.038V169.847C543.677 168.13 543.338 166.429 542.681 164.842C542.024 163.255 541.06 161.813 539.846 160.599C538.631 159.384 537.189 158.421 535.603 157.763C534.016 157.106 532.315 156.768 530.597 156.768H494.431C490.962 156.768 487.636 155.39 485.183 152.937C482.73 150.484 481.352 147.157 481.352 143.688V125.497C481.352 118.274 497.208 112.418 504.431 112.418H505.889C509.358 112.418 512.685 111.04 515.138 108.587C517.59 106.134 518.968 102.807 518.968 99.3382V81.1471C518.968 79.4295 518.63 77.7287 517.973 76.1418C517.316 74.5549 516.352 73.1131 515.138 71.8985C513.923 70.684 512.481 69.7205 510.894 69.0632C509.307 68.4059 507.607 68.0676 505.889 68.0676H63.9818C62.2642 68.0676 60.5634 68.4059 58.9765 69.0632C57.3897 69.7205 55.9478 70.684 54.7333 71.8985C53.5187 73.1131 52.5553 74.5549 51.898 76.1418C51.2407 77.7287 50.9024 79.4295 50.9024 81.1471V99.3382C50.9024 101.056 51.2407 102.757 51.898 104.344C52.5553 105.93 53.5187 107.372 54.7333 108.587C55.9478 109.801 57.3897 110.765 58.9765 111.422C60.5634 112.079 62.2642 112.418 63.9818 112.418C67.4507 112.418 70.7775 113.796 73.2304 116.249C75.6833 118.701 77.0613 122.028 77.0613 125.497V143.688C77.0613 147.157 75.6833 150.484 73.2304 152.937C70.7776 155.39 67.4508 156.768 63.9819 156.768H13.4024C11.6848 156.768 9.98403 157.106 8.39716 157.763C6.81028 158.421 5.36842 159.384 4.15388 160.599C2.93934 161.813 1.97591 163.255 1.31861 164.842C0.661304 166.429 0.322997 168.13 0.322998 169.847V188.038C0.322998 191.507 1.70101 194.834 4.15388 197.287C6.60675 199.74 9.93356 201.118 13.4024 201.118H33.249C36.7179 201.118 40.0447 202.496 42.4976 204.949C44.9505 207.402 46.3285 210.728 46.3285 214.197V232.389C46.3285 234.106 45.9902 235.807 45.3329 237.394C44.6756 238.981 43.7121 240.423 42.4976 241.637C41.2831 242.852 39.8412 243.815 38.2543 244.472C36.6674 245.13 34.9666 245.468 33.249 245.468H33.201C29.7321 245.468 26.4053 246.846 23.9525 249.299C21.4996 251.752 20.1216 255.079 20.1216 258.547V276.739C20.1216 278.456 20.4599 280.157 21.1172 281.744C21.7745 283.331 22.7379 284.773 23.9525 285.987C25.167 287.202 26.6089 288.165 28.1957 288.822C29.7826 289.48 31.4834 289.818 33.201 289.818H36.0724C39.5413 289.818 42.8681 291.196 45.321 293.649C47.7739 296.102 49.1519 299.429 49.1519 302.897V321.089C49.1519 324.558 47.7739 327.884 45.321 330.337C42.8681 332.79 39.5413 334.168 36.0724 334.168H18.9479C17.2303 334.168 15.5295 334.506 13.9427 335.164C12.3558 335.821 10.9139 336.784 9.69938 337.999C8.48484 339.214 7.52141 340.655 6.86411 342.242C6.20681 343.829 5.86849 345.53 5.8685 347.248V365.439C5.8685 368.908 7.24651 372.234 9.69938 374.687C12.1523 377.14 15.4791 378.518 18.9479 378.518H502.911C506.38 378.518 509.707 377.14 512.16 374.687C514.612 372.234 515.99 368.908 515.99 365.439V347.248C515.99 345.53 515.652 343.829 514.995 342.242C514.337 340.655 513.374 339.214 512.16 337.999C510.945 336.784 509.503 335.821 507.916 335.164C506.329 334.506 504.629 334.168 502.911 334.168H491.57C488.102 334.168 484.775 332.79 482.322 330.337C479.869 327.884 478.491 324.558 478.491 321.089V302.897C478.491 299.429 479.869 296.102 482.322 293.649C484.775 291.196 488.102 289.818 491.57 289.818H518.31C521.779 289.818 525.106 288.44 527.559 285.987C530.012 283.534 531.39 280.207 531.39 276.739V258.547C531.39 255.079 530.012 251.752 527.559 249.299C525.106 246.846 521.779 245.468 518.31 245.468H510.199C506.73 245.468 503.403 244.09 500.95 241.637C498.497 239.184 497.119 235.857 497.119 232.389V214.197C497.119 210.728 498.497 207.402 500.95 204.949C503.403 202.496 506.73 201.118 510.199 201.118H530.597C534.066 201.118 537.393 199.74 539.846 197.287C542.299 194.834 543.677 191.507 543.677 188.038Z" fill="#DBE8EC"/>
<path d="M168.782 156.165C168.779 162.798 166.144 169.158 161.455 173.849C156.766 178.54 150.407 181.178 143.774 181.184H50.3238C45.5665 181.185 40.9769 179.426 37.4375 176.248C33.8982 173.069 31.6589 168.693 31.1503 163.963C30.6418 159.233 31.8997 154.482 34.6824 150.623C37.465 146.765 41.5759 144.071 46.2246 143.06C46.5965 137.431 49.0928 132.154 53.2085 128.296C57.3241 124.438 62.7517 122.288 68.3928 122.28C70.6771 122.28 72.9469 122.643 75.1175 123.354C78.4106 116.985 83.5755 111.777 89.9173 108.43C96.2591 105.084 103.474 103.76 110.59 104.637C117.707 105.514 124.385 108.549 129.725 113.334C135.065 118.12 138.811 124.426 140.46 131.404C143.991 130.927 147.583 131.211 150.996 132.237C154.408 133.263 157.562 135.007 160.244 137.352C162.927 139.697 165.077 142.59 166.55 145.834C168.022 149.079 168.784 152.601 168.782 156.165Z" fill="#3674B5"/>
<path d="M331.28 303.08L312.701 275.46C327.679 262.152 337.118 243.71 339.152 223.778C341.186 203.847 335.667 183.877 323.687 167.819C311.706 151.761 294.136 140.782 274.451 137.055C254.765 133.327 234.398 137.122 217.376 147.689C200.354 158.256 187.916 174.825 182.523 194.12C177.129 213.416 179.172 234.033 188.248 251.894C197.324 269.756 212.771 283.562 231.536 290.582C250.301 297.603 271.017 297.326 289.588 289.808L307.698 316.612C308.587 318.16 309.772 319.518 311.185 320.609C312.598 321.699 314.213 322.501 315.936 322.967C317.659 323.434 319.457 323.557 321.228 323.328C322.998 323.1 324.707 322.525 326.255 321.637C327.803 320.748 329.162 319.563 330.252 318.15C331.343 316.737 332.144 315.122 332.611 313.399C333.077 311.676 333.2 309.878 332.972 308.107C332.743 306.337 332.168 304.628 331.28 303.08Z" fill="#578FCA"/>
<path d="M259.733 272.561C291.24 272.561 316.781 247.02 316.781 215.513C316.781 184.006 291.24 158.465 259.733 158.465C228.226 158.465 202.685 184.006 202.685 215.513C202.685 247.02 228.226 272.561 259.733 272.561Z" fill="#2C629C"/>
<path d="M259.733 158.465C257.009 158.468 254.29 158.665 251.594 159.053C265.173 161.009 277.593 167.794 286.576 178.164C295.559 188.534 300.503 201.794 300.503 215.513C300.503 229.233 295.559 242.493 286.576 252.863C277.593 263.232 265.173 270.017 251.594 271.974C259.349 273.092 267.251 272.6 274.808 270.53C282.365 268.46 289.414 264.855 295.516 259.94C301.619 255.025 306.643 248.906 310.276 241.964C313.91 235.023 316.074 227.407 316.634 219.591C317.195 211.776 316.139 203.929 313.533 196.54C310.928 189.151 306.828 182.378 301.489 176.643C296.15 170.908 289.688 166.334 282.504 163.206C275.319 160.079 267.568 158.465 259.733 158.465Z" fill="#275586"/>
<path d="M229.177 225.454C234.053 225.454 238.006 221.501 238.006 216.625C238.006 211.749 234.053 207.796 229.177 207.796C224.301 207.796 220.348 211.749 220.348 216.625C220.348 221.501 224.301 225.454 229.177 225.454Z" fill="#3674B5"/>
<path d="M288.279 210.759C291.655 210.759 294.391 208.023 294.391 204.647C294.391 201.271 291.655 198.535 288.279 198.535C284.903 198.535 282.167 201.271 282.167 204.647C282.167 208.023 284.903 210.759 288.279 210.759Z" fill="#275586"/>
<path d="M254.149 196.714C256.4 196.714 258.224 194.89 258.224 192.639C258.224 190.388 256.4 188.564 254.149 188.564C251.898 188.564 250.074 190.388 250.074 192.639C250.074 194.89 251.898 196.714 254.149 196.714Z" fill="#275586"/>
<path d="M255.658 250.981C257.909 250.981 259.733 249.157 259.733 246.906C259.733 244.655 257.909 242.831 255.658 242.831C253.407 242.831 251.583 244.655 251.583 246.906C251.583 249.157 253.407 250.981 255.658 250.981Z" fill="#275586"/>
<path d="M279.207 237.495C282.252 237.495 284.72 235.027 284.72 231.982C284.72 228.937 282.252 226.469 279.207 226.469C276.162 226.469 273.694 228.937 273.694 231.982C273.694 235.027 276.162 237.495 279.207 237.495Z" fill="#3674B5"/>
<path d="M217.216 271.311C218.946 271.311 220.348 269.909 220.348 268.179C220.348 266.449 218.946 265.047 217.216 265.047C215.486 265.047 214.084 266.449 214.084 268.179C214.084 269.909 215.486 271.311 217.216 271.311Z" fill="#3086A3"/>
<path d="M319.913 185.06C321.643 185.06 323.045 183.658 323.045 181.928C323.045 180.198 321.643 178.796 319.913 178.796C318.183 178.796 316.781 180.198 316.781 181.928C316.781 183.658 318.183 185.06 319.913 185.06Z" fill="#3086A3"/>
<path d="M318.011 249.043C316.11 253.078 313.779 256.896 311.059 260.431C308.245 263.945 305.088 267.169 301.633 270.056C298.106 272.895 294.312 275.386 290.305 277.494C282.198 281.656 273.297 284.042 264.195 284.493C261.926 284.514 259.661 284.598 257.401 284.46C255.143 284.334 252.894 284.083 250.664 283.708C241.783 282.282 233.343 278.848 225.989 273.667C233.906 277.364 242.385 279.711 251.076 280.614C259.637 281.45 268.278 280.741 276.588 278.523C280.722 277.398 284.752 275.92 288.634 274.107C292.502 272.231 296.216 270.051 299.74 267.589C303.237 265.033 306.53 262.209 309.59 259.144C312.628 255.977 315.442 252.602 318.011 249.043ZM193.834 228.85C190.697 217.302 190.947 205.095 194.556 193.686C196.344 187.939 198.914 182.465 202.194 177.419C203.837 174.895 205.654 172.488 207.631 170.215C209.593 167.927 211.705 165.773 213.955 163.767C216.221 161.78 218.608 159.935 221.104 158.245C222.383 157.45 223.617 156.581 224.942 155.862L226.905 154.744L228.924 153.731C230.261 153.04 231.67 152.496 233.042 151.884C234.456 151.368 235.838 150.772 237.281 150.341C240.129 149.389 243.043 148.645 246 148.115C251.891 147.075 257.897 146.841 263.852 147.421C269.744 148.022 275.518 149.473 280.995 151.729C275.351 150.282 269.558 149.494 263.733 149.381C257.981 149.295 252.239 149.896 246.63 151.172C241.07 152.482 235.695 154.478 230.628 157.114C228.101 158.422 225.654 159.88 223.3 161.478C220.964 163.101 218.729 164.864 216.607 166.758C208.022 174.339 201.456 183.936 197.501 194.685C193.541 205.611 192.282 217.333 193.834 228.85Z" fill="#3086A3"/>
<path d="M150.269 274.512V297.677C150.269 317.796 151.488 319.32 173.13 321.453V329.989H101.803V321.453C124.664 319.32 126.188 317.491 126.188 297.372V274.512H45.7163V265.367C74.6741 224.216 106.07 179.713 136.552 137.343H150.269V259.879H180.141V274.512L150.269 274.512ZM126.188 169.35C106.985 197.392 85.6472 228.483 64.6152 259.879H126.188V169.35ZM451.426 274.512V297.677C451.426 317.796 452.646 319.32 474.288 321.453V329.989H402.96V321.453C425.821 319.32 427.345 317.491 427.345 297.372V274.512H346.874V265.367C375.832 224.216 407.228 179.713 437.71 137.343H451.426V259.879H481.299V274.512L451.426 274.512ZM427.345 169.35C408.142 197.392 386.805 228.483 365.773 259.879H427.345V169.35Z" fill="#578FCA"/>
<path d="M499.439 85.6988C499.435 94.4352 495.964 102.813 489.787 108.992C483.611 115.171 475.235 118.646 466.499 118.653H343.411C337.145 118.654 331.099 116.338 326.438 112.151C321.776 107.964 318.826 102.201 318.156 95.9707C317.486 89.7405 319.143 83.4825 322.809 78.4C326.474 73.3175 331.888 69.7694 338.011 68.4378C338.501 61.0237 341.789 54.0727 347.21 48.9912C352.631 43.9098 359.78 41.0775 367.21 41.0675C370.219 41.0677 373.209 41.5454 376.068 42.4826C380.405 34.0929 387.208 27.2328 395.561 22.8252C403.915 18.4176 413.417 16.674 422.791 17.8288C432.165 18.9835 440.96 22.9814 447.994 29.2846C455.027 35.5877 459.962 43.8938 462.134 53.0854C466.785 52.4568 471.517 52.8307 476.011 54.182C480.506 55.5332 484.66 57.8306 488.193 60.9197C491.727 64.0088 494.558 67.8182 496.498 72.0921C498.438 76.3659 499.44 81.0054 499.439 85.6988ZM499.266 343.375C499.263 350.007 496.628 356.368 491.938 361.059C487.249 365.75 480.89 368.388 474.257 368.394H380.807C376.05 368.395 371.46 366.636 367.921 363.457C364.382 360.278 362.142 355.903 361.634 351.173C361.125 346.443 362.383 341.692 365.166 337.833C367.949 333.975 372.059 331.281 376.708 330.27C377.08 324.641 379.576 319.364 383.692 315.506C387.808 311.648 393.235 309.498 398.876 309.49C401.161 309.49 403.43 309.853 405.601 310.564C408.894 304.195 414.059 298.986 420.401 295.64C426.743 292.294 433.957 290.97 441.074 291.847C448.191 292.724 454.868 295.759 460.208 300.544C465.548 305.33 469.294 311.636 470.943 318.614C474.474 318.137 478.067 318.421 481.479 319.447C484.892 320.472 488.045 322.217 490.728 324.562C493.411 326.907 495.561 329.799 497.033 333.044C498.506 336.289 499.267 339.811 499.266 343.375Z" fill="#3674B5"/>
<path d="M66.2251 61.327H98.5281" stroke="#B9D4DB" stroke-width="3" stroke-miterlimit="10" stroke-linecap="round"/>
<path d="M66.2251 70.637H98.5281" stroke="#B9D4DB" stroke-width="3" stroke-miterlimit="10" stroke-linecap="round"/>
<path d="M66.2251 79.948H98.5281" stroke="#B9D4DB" stroke-width="3" stroke-miterlimit="10" stroke-linecap="round"/>
<path d="M220.595 337.257H252.898" stroke="#B9D4DB" stroke-width="3" stroke-miterlimit="10" stroke-linecap="round"/>
<path d="M220.595 346.568H252.898" stroke="#B9D4DB" stroke-width="3" stroke-miterlimit="10" stroke-linecap="round"/>
<path d="M220.595 355.878H252.898" stroke="#B9D4DB" stroke-width="3" stroke-miterlimit="10" stroke-linecap="round"/>
<path d="M483.115 213.982H515.417" stroke="#B9D4DB" stroke-width="3" stroke-miterlimit="10" stroke-linecap="round"/>
<path d="M483.115 223.293H515.417" stroke="#B9D4DB" stroke-width="3" stroke-miterlimit="10" stroke-linecap="round"/>
<path d="M483.115 232.603H515.417" stroke="#B9D4DB" stroke-width="3" stroke-miterlimit="10" stroke-linecap="round"/>
<path d="M27.9141 358.056C36.987 358.056 44.3421 350.701 44.3421 341.628C44.3421 332.555 36.987 325.2 27.9141 325.2C18.8412 325.2 11.4861 332.555 11.4861 341.628C11.4861 350.701 18.8412 358.056 27.9141 358.056Z" fill="#B9D4DB"/>
<path d="M48.589 323.824C53.3149 323.824 57.146 319.993 57.146 315.267C57.146 310.541 53.3149 306.71 48.589 306.71C43.8631 306.71 40.032 310.541 40.032 315.267C40.032 319.993 43.8631 323.824 48.589 323.824Z" fill="#B9D4DB"/>
<path d="M91.1201 360.942C95.2103 360.942 98.5261 357.626 98.5261 353.536C98.5261 349.446 95.2103 346.13 91.1201 346.13C87.0299 346.13 83.7141 349.446 83.7141 353.536C83.7141 357.626 87.0299 360.942 91.1201 360.942Z" fill="#B9D4DB"/>
<path d="M73.9199 336.519C76.646 336.519 78.8559 334.309 78.8559 331.583C78.8559 328.857 76.646 326.647 73.9199 326.647C71.1938 326.647 68.9839 328.857 68.9839 331.583C68.9839 334.309 71.1938 336.519 73.9199 336.519Z" fill="#B9D4DB"/>
<path d="M62.301 368.392C68.8362 368.392 74.134 363.094 74.134 356.559C74.134 350.024 68.8362 344.726 62.301 344.726C55.7658 344.726 50.468 350.024 50.468 356.559C50.468 363.094 55.7658 368.392 62.301 368.392Z" fill="#B9D4DB"/>
<path d="M255.282 120.717C264.355 120.717 271.71 113.362 271.71 104.289C271.71 95.216 264.355 87.861 255.282 87.861C246.209 87.861 238.854 95.216 238.854 104.289C238.854 113.362 246.209 120.717 255.282 120.717Z" fill="#B9D4DB"/>
<path d="M222.694 128.123C226.784 128.123 230.1 124.807 230.1 120.717C230.1 116.627 226.784 113.311 222.694 113.311C218.604 113.311 215.288 116.627 215.288 120.717C215.288 124.807 218.604 128.123 222.694 128.123Z" fill="#B9D4DB"/>
<path d="M213.615 104.289C220.15 104.289 225.448 98.9912 225.448 92.456C225.448 85.9208 220.15 80.623 213.615 80.623C207.08 80.623 201.782 85.9208 201.782 92.456C201.782 98.9912 207.08 104.289 213.615 104.289Z" fill="#B9D4DB"/>
</svg>
